<svg version="1.1" xmlns="http://www.w3.org/2000/svg" viewBox="0 0 250 250"><desc>Created with Snap</desc><defs></defs><g transform="matrix(0.0409,0,0,0.0409,12.0058,98.5797)"><g transform="matrix(19.2464,0,0,19.2464,1797.1808,221.9681)"><g><path d="M78.4,66.5c-5.5,4.8-9.9,15.2-9.9,15.2s-6.9-11.4-12.9-15.3c-9.5-6.1-13.6-6.2-13.6-6.2V65c0,0,7.8,1.2,11.7,4.6   c8.2,7.1,14.8,18.5,14.8,18.5S74.4,75,80.1,70.5C88.1,64.3,95,65,95,65v-4.8C95,60.1,85.1,60.7,78.4,66.5z" fill="#d3ccd2" style=""></path><path d="M42,80c-6.4-3.6-17.8-4.3-17.8-4.3s8.7-10.1,10.5-17C37.5,47.9,36.2,44,36.2,44l-4.6,1.6c0,0,1.3,7.7-0.6,12.4   c-4.1,9.9-13,19.8-13,19.8s14.6,1.3,20.7,5.1c8.6,5.4,10.2,12,10.2,12l4.6-1.6C53.5,93.4,49.7,84.4,42,80z" fill="#d3ccd2" style=""></path><path d="M35.3,36.8c11.3-0.9,14.6-3.4,14.6-3.4l-3-3.8c0,0-6.9,3.7-12.1,3.4c-10.9-0.6-23.3-5.6-23.3-5.6s3.5,14,1.8,20.9   C10.9,58.2,5,61.8,5,61.8l3,3.8c0,0,7.5-6.5,9.1-15.1c1.3-7.1-1.7-18-1.7-18S28,37.4,35.3,36.8z" fill="#d3ccd2" style=""></path><path d="M37.4,17.8c7.3-1.1,16.7-7.4,16.7-7.4s-0.6,13.2,2.4,19.8c4.6,10.2,8,12.5,8,12.5l2.7-4c0,0-5.9-5.2-7.3-10.2   C56.9,18.2,57.7,5,57.7,5s-12.3,7.8-19.5,8.5c-10.2,1-15.6-3.3-15.6-3.3l-2.7,4.1C19.9,14.2,28.6,19.1,37.4,17.8z" fill="#d3ccd2" style=""></path><path d="M65,60.5c0,0,3.1-7.2,7.4-10.1c9-6.1,21.9-9.7,21.9-9.7s-11.5-8.9-14.5-15.4c-4.2-9.1-1.9-15.6-1.9-15.6l-4.8-1.2   c0,0-1.9,9.6,2.2,17.4c3.4,6.4,12.5,13.2,12.5,13.2S75,42.9,69.6,47.8c-8.3,7.6-9.4,11.5-9.4,11.5L65,60.5z" fill="#d3ccd2" style=""></path></g><desc>Created with Snap</desc><defs></defs></g><g><g transform="matrix(1,0,0,-1,0,0)"><path d="M763 166Q813 328 879 758Q942 758 945 719Q946 707 946 702Q947 697 943 667Q939 638 931 585Q924 532 913 462Q902 392 888 316Q854 137 818 14Q782 -11 762 6Q753 15 746 30Q739 46 730 66Q717 83 682 156Q647 229 625 272Q604 315 584 352Q538 435 507 449Q471 393 379 142Q363 98 350 60Q337 23 328 0L266 3L16 581Q14 586 14 591Q14 596 17 601Q21 606 30 610Q47 616 64 616Q81 616 88 609Q96 603 100 593Q105 583 108 571Q111 559 119 540Q128 521 144 484Q161 447 180 406Q199 365 218 324Q237 284 254 250Q290 175 299 166Q415 452 442 505Q469 559 476 571Q487 588 493 588Q536 588 638 396Q666 345 690 298Q749 184 763 166ZM1015 190Q1015 308 1117 380Q1198 437 1312 449Q1318 449 1340 449Q1362 449 1399 436Q1481 408 1511 337Q1523 309 1523 289Q1523 270 1522 262Q1522 137 1427 65Q1339 -1 1207 -1Q1112 -1 1063 43Q1015 87 1015 190ZM1084 166Q1084 104 1117 82Q1142 66 1201 66Q1260 66 1305 75Q1350 84 1385 106Q1460 154 1460 255Q1460 315 1428 353Q1393 394 1336 394Q1297 387 1257 379Q1218 371 1183 348Q1107 299 1084 166ZM2057 365Q2015 395 1949 395Q1887 395 1834 372Q1734 330 1697 264Q1681 234 1681 200Q1681 194 1681 166Q1681 139 1691 92Q1701 46 1701 -2Q1680 -3 1667 -7Q1654 -11 1645 -11Q1636 -11 1629 -3Q1623 5 1615 28Q1614 34 1611 62Q1608 90 1603 130Q1599 170 1593 217Q1588 265 1583 311Q1572 411 1566 458Q1566 482 1601 482Q1622 482 1634 464Q1646 447 1653 424Q1660 402 1662 380Q1665 358 1667 349Q1799 467 1995 467Q2017 467 2041 466Q2047 467 2056 467Q2065 467 2074 455Q2085 441 2085 421Q2085 371 2057 365ZM2230 182L2235 95Q2235 15 2197 -2Q2189 -5 2178 -5Q2167 -5 2152 0L2153 374Q2153 455 2143 536Q2134 618 2134 699Q2134 731 2168 731L2176 731Q2183 731 2185 730Q2200 668 2205 580Q2216 385 2225 318Q2242 327 2301 369Q2360 411 2396 436Q2432 462 2464 484Q2539 533 2558 533Q2574 533 2583 514Q2533 451 2422 374Q2377 343 2332 312Q2288 282 2251 249Q2318 231 2378 211Q2438 192 2494 176Q2623 138 2716 133Q2716 106 2711 98Q2702 84 2674 82L2666 82Q2605 99 2504 120Q2305 161 2230 182ZM2748 87Q2748 106 2763 120Q2779 135 2787 140Q2796 146 2799 149Q2804 58 2922 58Q3015 58 3139 116Q3227 156 3257 198Q3267 211 3267 219Q3267 228 3264 233L2849 326Q2831 330 2814 343Q2783 365 2783 383Q2783 452 2881 508Q2989 569 3170 600Q3211 607 3231 608Q3237 606 3249 604Q3262 603 3275 600Q3306 593 3301 574Q3301 540 3171 520Q3003 495 2961 478Q2920 461 2901 443Q2883 425 2882 400Q2882 395 2905 389Q2928 383 2960 374Q2992 366 3043 352Q3167 318 3347 266Q3357 244 3357 225Q3357 172 3295 123Q3225 68 3101 30Q2998 -1 2937 -1Q2886 -1 2840 17Q2794 35 2771 52Q2748 69 2748 87ZM3888 14Q3879 -3 3841 -3Q3804 -3 3804 24Q3804 142 3799 186Q3790 283 3761 290Q3689 304 3643 304Q3598 304 3568 276Q3539 249 3523 185Q3508 122 3501 7L3424 7Q3426 64 3426 113Q3426 162 3424 229Q3422 297 3419 377Q3414 469 3414 532Q3414 596 3422 649Q3432 668 3451 668Q3474 668 3487 651Q3500 635 3501 622L3496 457Q3496 364 3505 318Q3595 378 3691 378Q3722 378 3757 373Q3832 334 3855 290Q3866 267 3869 241Q3872 215 3873 182Q3879 68 3888 14ZM4318 166Q4243 48 4118 20Q4089 14 4065 14Q4042 14 4026 14Q4011 15 3992 19Q3973 23 3957 32Q3920 53 3920 91Q3916 109 3916 131Q3916 154 3926 191Q3936 228 3962 271Q3989 314 4027 350Q4106 426 4198 448Q4225 454 4247 454Q4270 454 4288 451Q4346 451 4366 372Q4379 322 4381 232Q4384 143 4386 94Q4389 46 4399 6L4340 6Q4336 33 4334 54Q4332 75 4330 93Q4325 135 4318 166ZM4314 321Q4314 379 4257 379Q4250 380 4243 380Q4170 380 4089 310Q4051 278 4024 238Q3984 181 3984 136Q3984 77 4052 66Q4142 68 4224 148Q4259 183 4282 224Q4314 279 4314 321ZM4937 365Q4895 395 4829 395Q4767 395 4714 372Q4614 330 4577 264Q4561 234 4561 200Q4561 194 4561 166Q4561 139 4571 92Q4581 46 4581 -2Q4560 -3 4547 -7Q4534 -11 4525 -11Q4516 -11 4509 -3Q4503 5 4495 28Q4494 34 4491 62Q4488 90 4483 130Q4479 170 4473 217Q4468 265 4463 311Q4452 411 4446 458Q4446 482 4481 482Q4502 482 4514 464Q4526 447 4533 424Q4540 402 4542 380Q4545 358 4547 349Q4679 467 4875 467Q4897 467 4921 466Q4927 467 4936 467Q4945 467 4954 455Q4965 441 4965 421Q4965 371 4937 365ZM5215 70Q5303 70 5480 150Q5491 150 5498 142Q5505 135 5505 125Q5465 57 5352 19Q5239 -19 5141 6Q5030 35 5006 131Q5004 150 5004 182Q5004 214 5020 266Q5037 319 5077 366Q5117 413 5171 440Q5225 467 5286 467Q5344 467 5416 427Q5450 408 5470 384Q5490 360 5490 335Q5490 328 5489 321Q5487 260 5430 244Q5405 237 5372 237L5228 243Q5156 243 5118 212Q5096 195 5087 161Q5112 70 5215 70ZM5393 379Q5371 395 5347 402Q5323 409 5307 409Q5291 409 5255 398Q5219 388 5191 375Q5122 343 5122 308Q5202 301 5242 301Q5353 301 5392 320Q5416 330 5416 345Q5416 363 5393 379Z" fill="#d3ccd2" style=""></path></g></g></g></svg>
